# xmcd
#
# Track frame offsets:
#	150
#	12990
#	50633
#	73275
#	93591
#	114009
#	144446
#	170268
#	199971
#
# Disc length: 2789 seconds
#
# Revision: 4
# Processed by: cddbd v1.5.2PL0 Copyright (c) Steve Scherf et al.
# Submitted via: EasyCDDAExtractor 10.0.5.1
#
DISCID=7c0ae309
DTITLE=Dżem - Detox
DYEAR=1997
DGENRE=Blues
TTITLE0=Śmiech czy łzy
TTITLE1=Ostatnie widzenie
TTITLE2=Mamy forse, mamy czas
TTITLE3=Jak malowany ptak
TTITLE4=Czarny chleb
TTITLE5=Detox
TTITLE6=Sen o Victorii
TTITLE7=List do M.
TTITLE8=Letni spacer z Agnieszką
EXTD=
EXTT0=
EXTT1=
EXTT2=
EXTT3=
EXTT4=
EXTT5=
EXTT6=
EXTT7=
EXTT8=
PLAYORDER=
